<svg id="Capa_1" enable-background="new 0 0 512 512" height="512" viewBox="0 0 512 512" width="512" xmlns="http://www.w3.org/2000/svg"><g><path d="m486.065 263.028c0 12.02 25.105 16.812 23.505 28.383-8.31 60.08-37.48 113.5-79.95 152.72-5.58 5.15-11.39 10.061-17.42 14.71-43.22 33.329-97.4 53.159-156.2 53.159-2.46 0-4.91-.03-7.35-.1-2.636-.075-5.266-9.188-7.886-9.344-2.27-.135-4.532 8.698-6.784 8.503-58.99-5.02-112.28-30.05-153.05-68.279-3.65-3.431-7.21-6.96-10.66-10.59-37.35-39.38-62.33-90.62-68.68-147.49-.407-3.639 12.822-10.465 12.57-14.147-.33-4.829-14.084-6.531-14.14-11.433-.01-1.04-.02-2.08-.02-3.12 0-129.89 96.74-237.18 222.09-253.771 11.09-1.47 13.229 23.057 24.729 23.057 1.43 0 12.041-25.277 13.461-25.247 62.44 1.02 119.44 24.39 163.35 62.46 9.61 8.35 18.6 17.38 26.87 27.05 37.61 43.91 60.62 100.71 61.47 162.86.02 1.201-25.905 9.418-25.905 10.619z" fill="#9be69d"/><path d="m512 256c0 12.02-.83 23.84-2.43 35.41l-34.65 11.52c-47.74 15.86-72.73 68.23-55.03 115.32l9.73 25.88 9.29 24.74-26.71-10.03-39.14-14.71c-40.89-15.36-86.88 1.35-108.37 39.38l-16.04 28.39c-4.92-.141-9.82-.421-14.67-.841l-19.6-34.68c-19.67-34.8-60.18-52.14-98.93-42.34l-34.52 8.74-14.25 3.6 3.59-14.189 7.9-31.221c10.2-40.3-8.98-82.27-46.12-100.95l-30.46-15.319c-.94-8.41-1.47-16.94-1.57-25.58l32.07-16.12c37.12-18.68 56.29-60.62 46.12-100.91l-11.45-45.36 34.46 8.7c45.03 11.36 91.19-13.93 105.84-57.989l15.03-45.211c11.09-1.47 22.41-2.23 33.91-2.23 1.43 0 2.86.01 4.28.04l8.97 26.99c17.2 51.729 76.57 75.83 124.96 50.729l29.42-15.26 55.96-29.021-29.09 56.072-15.19 29.28c-25.11 48.399-1 107.77 50.74 124.97l25.92 8.61c.02 1.2.03 2.39.03 3.59z" fill="#fee45a"/><path d="m380.084 172.465-10.752 27.56c-8.545 21.902-1.377 46.813 17.5 60.826l26.084 19.361-25.587 10.521c-23.763 9.771-36.868 35.395-30.881 60.381l9.641 40.232-28.161-14.79c-26.196-13.758-58.578-2.989-71.316 23.718l-25.223 52.882-10.098-50.697c-6.264-31.449-39.16-49.847-69.236-38.721l-53.045 19.622 32.068-46.6c18.177-26.414 8.436-62.819-20.502-76.627l-46.615-22.242 63.055-12.57c26.783-5.339 44.911-30.439 41.558-57.543l-2.566-20.747 25.639 9.988c22.773 8.872 48.653.737 62.255-19.568l20.777-31.016 12.506 35.152c8.195 23.035 31.294 37.284 55.557 34.272z" fill="#ffd15b"/><g><g><g><path d="m457.855 362.979c-2.349 1.039-4.935 1.631-7.663 1.682-11.043.211-20.165-8.562-20.376-19.606l-.774-39.668-17.899 37.326c-.108.215-.215.43-.323.645-2.74 5.223-7.306 9.027-12.621 10.858-3.471 1.192-7.257 1.559-11.065.928l-.118-.02c-9.571-1.637-16.998-9.167-18.489-18.776-.04-.24-.079-.49-.107-.739l-4.87-41.282-13.383 36.902c-3.764 10.384-15.243 15.747-25.627 11.982-10.384-3.764-15.747-15.233-11.983-25.617l38.467-106.043c.023-.077.055-.143.078-.22 3.608-9.589 13.243-15.56 23.443-14.516 10.206 1.066 18.421 8.852 19.996 18.982.038.25.069.489.097.737l6.454 54.62 23.626-49.282c.108-.215.216-.43.323-.645 4.768-9.076 15.065-13.818 25.049-11.511 9.986 2.296 17.184 11.044 17.512 21.286-.004.081.003.163-.001.244l2.197 113.028c.171 8.318-4.778 15.547-11.943 18.705z" fill="#fe646f"/></g><g fill="#fd4755"><path d="m334.269 321.303 38.463-106.041c.026-.072.053-.143.079-.214 2.4-6.386 7.478-11.151 13.609-13.324-3.316-2.68-7.405-4.439-11.876-4.905-10.196-1.047-19.835 4.922-23.44 14.517-.027.072-.053.143-.079.214l-38.464 106.04c-3.766 10.384 1.598 21.855 11.982 25.621 5.028 1.821 10.304 1.488 14.844-.503-5.65-5.306-7.929-13.657-5.118-21.405z"/><path d="m405.73 310.468 40.698-84.881c.104-.217.213-.432.324-.646 2.711-5.166 7.219-8.922 12.441-10.779-2.603-2.103-5.685-3.66-9.106-4.446-9.986-2.304-20.283 2.44-25.043 11.512-.112.214-.22.429-.324.646l-23.631 49.284z"/><path d="m457.855 362.979c-2.349 1.039-4.935 1.631-7.663 1.682-11.043.211-20.165-8.562-20.376-19.606l-.774-39.668c.723-.962 20.157-41.039 20.157-41.039l2.322 84.419c.103 5.619 2.53 10.65 6.334 14.212z"/><path d="m398.363 354.144c-.054.02-.109.042-.165.073-3.471 1.192-7.257 1.559-11.065.928l-.118-.02c-9.571-1.637-16.998-9.167-18.489-18.776-.04-.24-.079-.49-.107-.739l-4.87-41.282 13.383-36.902 13.202 81.898c.029.249.057.497.097.737.883 5.69 3.87 10.644 8.132 14.083z"/></g></g><g><path d="m282.207 331.267c-41.622 8.373-82.296-18.676-90.67-60.298-8.373-41.622 18.676-82.297 60.298-90.67s82.297 18.677 90.67 60.299c8.374 41.621-18.675 82.295-60.298 90.669zm-22.482-111.755c-19.999 4.023-32.997 23.567-28.973 43.567 4.023 19.999 23.567 32.996 43.566 28.973s32.997-23.567 28.973-43.566c-4.023-19.999-23.567-32.997-43.566-28.974z" fill="#fe646f"/><g fill="#fd4755"><path d="m284.784 288.24c3.626.379 7.368.225 11.126-.531 19.999-4.023 32.997-23.567 28.973-43.566-4.023-20-23.567-32.997-43.567-28.974-3.758.756-7.268 2.061-10.465 3.813 15.67 1.64 29.174 13.263 32.441 29.505 3.267 16.24-4.691 32.18-18.508 39.753z"/><path d="m213.128 266.625c-7.636-37.956 14.193-75.111 49.661-87.714-3.63.202-7.287.65-10.953 1.388-41.622 8.373-68.672 49.048-60.298 90.67 8.373 41.622 49.048 68.671 90.67 60.298 3.666-.738 7.212-1.739 10.638-2.956-37.583 2.093-72.082-23.73-79.718-61.686z"/></g></g><g><path d="m193.016 337.904c-41.622 8.373-82.296-18.676-90.67-60.298s18.676-82.297 60.298-90.67 82.297 18.677 90.67 60.299c8.375 41.622-18.675 82.296-60.298 90.669zm-22.482-111.754c-19.999 4.023-32.997 23.567-28.973 43.567 4.023 19.999 23.567 32.996 43.566 28.973s32.997-23.567 28.973-43.566c-4.023-20-23.567-32.997-43.566-28.974z" fill="#fe646f"/><g fill="#fd4755"><path d="m123.938 273.262c-7.636-37.956 14.193-75.111 49.661-87.714-3.63.202-7.287.65-10.953 1.388-41.622 8.373-68.672 49.048-60.298 90.67s49.048 68.671 90.67 60.298c3.666-.738 7.212-1.739 10.638-2.956-37.584 2.093-72.082-23.729-79.718-61.686z"/><path d="m195.593 294.877c3.626.379 7.368.225 11.126-.531 19.999-4.023 32.997-23.567 28.973-43.566-4.023-20-23.567-32.997-43.567-28.974-3.758.756-7.268 2.061-10.465 3.813 15.67 1.64 29.174 13.263 32.441 29.505 3.267 16.241-4.691 32.181-18.508 39.753z"/></g></g><g><path d="m115.563 294.264c-.193-7.01-1.976-14.077-5.537-20.655-12.135-22.417-40.246-30.783-62.663-18.648l-29.119 15.763c-9.714 5.258-13.326 17.395-8.067 27.109l24.988 46.162.04.075 29.237 54.011c2.532 4.678 6.824 8.155 11.926 9.661 5.074 1.498 10.532.924 15.183-1.594l.078-.042c.267-.147 26.795-14.659 34.062-18.593 24.577-13.304 33.749-44.123 20.445-68.699-6.732-12.436-17.95-20.918-30.573-24.55zm-49.158-4.126c3.021-1.635 6.809-.508 8.445 2.513 1.635 3.02.508 6.809-2.513 8.444-2.163 1.171-6.179 3.36-10.554 5.748l-.962.521-5.946-10.985zm40.245 62.199c-3.209 1.737-9.939 5.409-16.591 9.042l-10.195-18.834c.324-.176.646-.353.966-.527l15.648-8.471c5.181-2.804 11.677-.871 14.481 4.309 2.805 5.18.872 11.676-4.309 14.481z" fill="#fe646f"/><g fill="#fd4755"><path d="m130.328 327.372c-2.804-5.18-9.3-7.114-14.481-4.309l-15.648 8.471c-.32.174-.643.351-.966.527l.222.41c4.48-.901 9.22 1.163 11.506 5.386s1.422 9.319-1.782 12.578l.249.46c6.651-3.633 13.381-7.305 16.591-9.042 5.179-2.805 7.113-9.301 4.309-14.481z"/><path d="m95.737 397.258c-5.102-1.507-9.394-4.983-11.926-9.661l-29.237-54.011-.04-.075-24.988-46.162c-5.258-9.714-1.647-21.851 8.067-27.109l-19.368 10.484c-9.714 5.258-13.326 17.395-8.067 27.109l24.988 46.162.04.075 29.237 54.011c2.532 4.678 6.824 8.155 11.926 9.661 5.074 1.498 10.532.924 15.183-1.594.026-.014.052-.028.078-.042.153-.084 8.931-4.887 17.766-9.712-4.295 1.876-9.128 2.201-13.659.864z"/><path d="m94.217 282.167c-1.635-3.021-5.424-4.149-8.445-2.513l-11.531 6.242 5.946 10.985.962-.521c4.375-2.388 8.391-4.578 10.553-5.748 3.023-1.636 4.15-5.425 2.515-8.445z"/></g></g></g></g></svg>